<svg width="42" height="43" viewBox="0 0 42 43" fill="none" xmlns="http://www.w3.org/2000/svg">
<path fill-rule="evenodd" clip-rule="evenodd" d="M8.86973 0.0713229C9.14418 -0.0531162 9.43931 -0.0185203 9.64121 0.205112C10.5068 1.165 12.6885 3.91144 13.5621 4.9766C13.7436 5.19787 14.0133 5.32037 14.2994 5.32035L27.7721 5.31839C28.0448 5.31827 28.3064 5.20609 28.484 4.99906C28.9028 4.51072 29.4081 3.85826 29.7594 3.42679L32.1979 0.437534C32.4827 0.0883162 32.9683 -0.0245696 33.3775 0.164096L39.2037 2.85257C39.636 3.05215 39.8641 3.53175 39.7467 3.9932L37.815 11.5811C37.7721 11.7499 37.7747 11.9273 37.8229 12.0948C38.3842 14.0452 39.0372 16.0612 39.6354 18.0039C40.3836 20.4725 41.1481 22.936 41.9293 25.3936C42.0035 25.6273 41.9892 25.8804 41.8873 26.1035L37.5455 35.6143C37.3848 35.9663 37.033 36.1925 36.6461 36.1924L31.9801 36.1895L31.6441 36.1905C31.378 36.1914 31.1229 36.2997 30.9391 36.4922C29.2859 38.2228 27.614 40.1753 25.9586 41.9512C25.7792 42.1434 25.5301 42.2551 25.2672 42.2608C22.4979 42.3209 19.4969 42.2609 16.7018 42.2539C16.4291 42.2533 16.1681 42.1408 15.982 41.9414C14.3305 40.1717 12.6727 38.3108 11.0387 36.5147C10.8517 36.3092 10.586 36.1923 10.3082 36.1924L5.32969 36.1934C4.94322 36.1935 4.59216 35.9686 4.43125 35.6172L0.0894568 26.1231C-0.0142443 25.8962 -0.0280482 25.6386 0.0494177 25.4014C0.67656 23.4826 1.2733 21.4433 1.8668 19.5186C2.65243 17.0051 3.42294 14.4865 4.17832 11.9629C4.23279 11.781 4.23331 11.587 4.18125 11.4043C3.53012 9.1202 2.87467 6.33857 2.2877 3.95023C2.17857 3.50579 2.38602 3.0432 2.79649 2.84085C4.66431 1.9206 6.97701 0.929919 8.86973 0.0713229ZM25.3697 16.794C22.6061 16.8071 19.5619 16.8705 16.8238 16.8008C16.3735 16.7895 15.9705 17.0798 15.8395 17.5108C14.7344 21.146 13.4462 24.7577 12.3268 28.3868C12.1638 28.915 11.9916 29.4538 11.815 29.9844C11.7008 30.3278 11.7793 30.7071 12.024 30.9737L16.2877 35.6172C16.4749 35.8209 16.7395 35.9367 17.0162 35.9366L25.1695 35.9317C25.445 35.9315 25.7079 35.8164 25.8941 35.6133C27.2809 34.1009 28.7373 32.4495 30.1432 30.9727C30.395 30.7082 30.4839 30.3271 30.3717 29.9795L27.5914 21.3662C27.2104 20.1862 26.7137 18.7661 26.3297 17.5108C26.2002 17.0874 25.8124 16.7921 25.3697 16.794Z" fill="#C29E57"/>
<path d="M23.8464 25.2988C23.8464 26.8875 22.5311 28.1754 20.9085 28.1754C19.286 28.1754 17.9707 26.8875 17.9707 25.2988C17.9707 23.7101 19.286 22.4222 20.9085 22.4222C22.5311 22.4222 23.8464 23.7101 23.8464 25.2988Z" fill="#C29E57"/>
<path d="M16.2028 38.2706L19.7635 27.3613H21.985L26.0302 38.2706H16.2028Z" fill="#C29E57"/>
</svg>
